<?xml version="1.0" standalone="no"?><!DOCTYPE svg PUBLIC "-//W3C//DTD SVG 1.1//EN" "http://www.w3.org/Graphics/SVG/1.1/DTD/svg11.dtd"><svg t="1663937233996" class="icon" viewBox="0 0 1051 1024" version="1.1" xmlns="http://www.w3.org/2000/svg" p-id="13681" xmlns:xlink="http://www.w3.org/1999/xlink" width="65.6875" height="64"><path d="M866.99877 1024H185.053253C83.085134 1024 0 943.612435 0 844.881399V351.765733C0 253.034697 83.085134 172.647132 185.053253 172.647132H339.893731l64.202149-105.205202A141.406582 141.406582 0 0 1 525.486498 0.002698h1.079027a141.082874 141.082874 0 0 1 121.390618 68.51826l62.044094 103.58666h156.998533A185.970427 185.970427 0 0 1 999.719179 226.598518a175.126198 175.126198 0 0 1 51.79333 124.627701v493.115666c0 99.810064-82.54562 179.658115-184.513739 179.658115zM185.053253 281.089418C142.431659 281.089418 107.902772 312.920735 107.902772 352.305247v493.115666c0 39.384512 34.528887 71.215829 77.150481 71.215829h681.406003c42.621595 0 77.150482-31.831318 77.150482-71.215829V352.305247a66.144399 66.144399 0 0 0-20.501527-48.016734 80.441516 80.441516 0 0 0-56.648955-23.199095h-218.503113l-93.335897-156.459019a35.44606 35.44606 0 0 0-58.807011 0l-95.493952 156.459019z" fill="#333333" p-id="13682"></path><path d="M711.618779 431.07427H258.966652c-24.817637 0-44.77965 24.278124-44.77965 53.951386s19.962013 53.951386 44.77965 53.951386h452.652127c24.817637 0 44.77965-24.278124 44.77965-53.951386s-19.962013-53.951386-44.77965-53.951386zM538.974344 645.800786H258.966652c-24.817637 0-44.77965 24.278124-44.77965 53.951385s19.962013 53.951386 44.77965 53.951386h279.468178c24.817637 0 44.77965-24.278124 44.77965-53.951386s-19.422499-53.951386-44.240136-53.951385z" fill="#AC0404" p-id="13683"></path><path d="M346.907411 172.647132h343.130813v108.442286H346.907411z" fill="#333333" p-id="13684"></path></svg>